<svg xmlns="http://www.w3.org/2000/svg" xmlns:xlink="http://www.w3.org/1999/xlink" version="1.1" width="1000" height="1000" viewBox="0 0 1000 1000" xml:space="preserve">
<desc>Created with Fabric.js 3.5.0</desc>
<defs>
</defs>
<rect x="0" y="0" width="100%" height="100%" fill="rgba(255,255,255,0)"/>
<g transform="matrix(2.2727 0 0 2.2727 499.9945 499.9945)" id="210397">
<g style="" vector-effect="non-scaling-stroke">
		<g transform="matrix(1 0 0 1 0.0039 -2.4622)" id="path0">
<path style="stroke: none; stroke-width: 1; stroke-dasharray: none; stroke-linecap: butt; stroke-dashoffset: 0; stroke-linejoin: miter; stroke-miterlimit: 4; is-custom-font: none; font-file-url: none; fill: rgb(215,235,243); fill-rule: evenodd; opacity: 1;" transform=" translate(-200.004, -197.5378)" d="M 119.186 35.764 C 118.864 36.075 116.8 37.573 114.6 39.094 C 112.4 40.614 107.54 43.999 103.8 46.615 C 100.06 49.232 95.176 52.638 92.947 54.186 C 90.717 55.734 86.397 58.748 83.347 60.885 C 80.296 63.022 75.73 66.203 73.2 67.954 C 70.67 69.705 68.42 71.293 68.2 71.484 C 67.98 71.674 65.595 73.34 62.9 75.186 L 58 78.543 L 58 137.006 C 58 198.705 57.963 197.28 59.8 206.2 C 65.8 235.33 86.889 270.24 115.842 298.968 C 126.258 309.303 132.791 315.046 147.2 326.533 C 147.53 326.796 148.43 327.456 149.2 328 C 149.97 328.544 150.87 329.204 151.2 329.468 C 154.853 332.388 175.975 346.8 176.601 346.8 C 176.697 346.8 177.996 347.587 179.488 348.549 C 182.236 350.321 194.717 357.6 195.007 357.6 C 195.094 357.6 196.081 358.14 197.2 358.8 C 200.057 360.484 200.274 360.439 206.5 356.862 C 207.325 356.388 208.585 355.664 209.3 355.254 C 216.562 351.086 222.726 347.409 224.725 346.051 C 226.062 345.143 227.346 344.4 227.578 344.4 C 227.81 344.4 228 344.22 228 344 C 228 343.78 228.236 343.6 228.525 343.6 C 228.813 343.6 229.398 343.285 229.825 342.9 C 230.251 342.515 231.095 341.945 231.7 341.632 C 232.305 341.32 232.8 340.915 232.8 340.732 C 232.8 340.55 233.036 340.4 233.325 340.4 C 233.613 340.4 234.208 340.085 234.646 339.7 C 235.085 339.315 235.731 338.82 236.082 338.6 C 237.301 337.837 245.801 331.861 246 331.628 C 246.11 331.498 246.874 330.944 247.697 330.396 C 248.521 329.848 249.196 329.265 249.197 329.1 C 249.199 328.935 249.47 328.8 249.8 328.8 C 250.13 328.8 250.4 328.659 250.4 328.486 C 250.4 328.314 250.895 327.88 251.5 327.521 C 252.105 327.163 253.05 326.474 253.6 325.99 C 254.15 325.506 255.23 324.635 256 324.055 C 256.77 323.475 257.641 322.772 257.935 322.494 C 258.229 322.216 259.129 321.497 259.935 320.896 C 260.741 320.296 261.49 319.704 261.6 319.581 C 261.71 319.458 262.97 318.394 264.4 317.216 C 272.181 310.808 287.935 295.624 294.067 288.621 C 295.02 287.533 296.532 285.823 297.426 284.821 C 299.465 282.538 305.243 275.377 307.61 272.2 C 308.593 270.88 309.498 269.71 309.62 269.6 C 309.742 269.49 310.643 268.23 311.621 266.8 C 312.599 265.37 313.51 264.11 313.645 264 C 314.357 263.419 322.21 250.723 324.162 247 C 324.623 246.12 325.098 245.31 325.217 245.2 C 325.744 244.713 331.698 232.202 333.21 228.4 C 334.13 226.09 335.036 223.84 335.224 223.4 C 335.678 222.34 337.603 216.544 338.048 214.9 C 338.242 214.185 338.592 212.925 338.827 212.1 C 339.759 208.821 340.247 206.612 341.277 201 C 341.581 199.345 341.763 179.95 341.863 138.515 L 342.008 78.43 L 338.904 76.345 C 337.197 75.199 335.74 74.112 335.667 73.93 C 335.593 73.749 335.293 73.6 335 73.6 C 334.707 73.6 334.407 73.454 334.333 73.275 C 334.26 73.097 331.77 71.284 328.8 69.248 C 319.691 63.001 314.23 59.201 313.562 58.645 C 313.211 58.353 311.771 57.336 310.362 56.385 C 308.953 55.434 307.74 54.508 307.667 54.328 C 307.593 54.147 307.323 54 307.067 54 C 306.81 53.999 306.116 53.594 305.525 53.1 C 304.934 52.605 302.341 50.76 299.762 49 C 297.184 47.24 294.845 45.575 294.565 45.3 C 294.286 45.025 293.898 44.8 293.704 44.8 C 293.51 44.8 292.992 44.485 292.554 44.1 C 292.115 43.715 291.475 43.22 291.132 43 C 290.788 42.78 289.109 41.61 287.4 40.4 C 285.691 39.19 284.002 38.02 283.647 37.8 C 283.291 37.58 282.91 37.301 282.8 37.181 C 282.69 37.06 282.032 36.565 281.338 36.081 L 280.077 35.2 L 199.924 35.2 C 131.468 35.2 119.686 35.282 119.186 35.764 M 273.825 59.123 C 274.251 59.52 276.22 60.953 278.2 62.307 C 280.18 63.661 282.88 65.531 284.2 66.462 C 288.355 69.396 294.864 73.92 298.6 76.473 C 300.58 77.826 302.29 79.047 302.4 79.187 C 302.51 79.327 305.48 81.4 309 83.795 C 312.52 86.19 315.632 88.379 315.915 88.661 C 316.198 88.942 316.963 89.487 317.615 89.872 L 318.8 90.572 L 318.793 142.586 C 318.785 198.814 318.88 196.048 316.621 205.4 C 315.684 209.278 313.264 216.543 311.824 219.802 C 311.436 220.681 310.97 221.76 310.789 222.2 C 310.08 223.921 305.125 233.899 304.134 235.6 C 303.558 236.59 302.779 237.94 302.403 238.6 C 300.093 242.657 292.006 254.93 291.202 255.6 C 291.07 255.71 290.529 256.43 290 257.2 C 289.471 257.97 288.94 258.69 288.819 258.8 C 288.699 258.91 287.972 259.81 287.206 260.8 C 276.016 275.244 259.106 292.157 244.41 303.606 C 243.425 304.372 242.375 305.228 242.075 305.506 C 241.776 305.784 240.871 306.503 240.065 307.104 C 239.259 307.704 238.51 308.295 238.4 308.417 C 238.29 308.539 237.57 309.077 236.8 309.614 C 236.03 310.15 235.13 310.809 234.8 311.078 C 231.428 313.829 213.5 326 212.819 326 C 212.589 326 212.4 326.18 212.4 326.4 C 212.4 326.62 212.207 326.8 211.972 326.8 C 211.737 326.8 210.789 327.295 209.865 327.9 C 207.973 329.14 207.768 329.267 203.565 331.783 C 199.816 334.027 200.416 334.074 195.509 331.153 C 159.315 309.6 130.453 284.57 109.738 256.769 C 103.832 248.843 100.65 243.981 95.948 235.7 C 92.272 229.224 87.889 219.534 85.68 213 C 83.678 207.077 82.953 204.279 81.608 197.28 C 81.343 195.905 81.205 176.791 81.214 142.88 L 81.229 90.6 L 85.275 87.8 C 87.5 86.26 91.255 83.65 93.618 82 C 97.875 79.028 100.412 77.258 113.2 68.339 C 116.83 65.807 121.51 62.536 123.6 61.07 L 127.4 58.406 L 200.225 58.403 C 269.895 58.4 273.083 58.431 273.825 59.123 M 254.746 123.297 C 252.906 125.154 246.54 131.685 240.6 137.81 C 234.66 143.935 227.73 151.045 225.2 153.609 C 222.67 156.174 219.07 159.875 217.2 161.835 C 215.33 163.795 207.66 171.699 200.155 179.399 C 192.651 187.1 185.065 194.898 183.297 196.729 L 180.084 200.059 L 176.542 196.751 C 173.149 193.582 170.16 190.784 154.986 176.579 C 151.238 173.071 146.68 168.805 144.857 167.1 C 140.794 163.299 141.802 163.067 136.165 169.097 C 133.544 171.9 130.095 175.578 128.5 177.271 C 125.108 180.871 125.15 180.709 127.172 182.482 C 128.661 183.787 135.421 190.084 143.403 197.6 C 145.389 199.47 148.451 202.336 150.207 203.968 C 151.963 205.6 154.936 208.39 156.814 210.168 C 158.691 211.946 161.481 214.556 163.014 215.969 C 164.546 217.382 168.14 220.729 171 223.408 C 179.835 231.684 180.593 232.377 180.831 232.388 C 181.053 232.4 183.901 229.507 196.963 216 C 200.261 212.59 207.018 205.651 211.979 200.58 C 216.941 195.509 223.499 188.759 226.554 185.58 C 229.609 182.401 235.464 176.38 239.565 172.2 C 257.253 154.171 273.825 137.07 274.139 136.522 C 274.459 135.964 271.81 133.198 260.096 121.86 L 258.091 119.92 L 254.746 123.297" stroke-linecap="round"/>
</g>
		<g transform="matrix(1 0 0 1 0.005 -0.0871)" id="path1">
<path style="stroke: none; stroke-width: 1; stroke-dasharray: none; stroke-linecap: butt; stroke-dashoffset: 0; stroke-linejoin: miter; stroke-miterlimit: 4; is-custom-font: none; font-file-url: none; fill: rgb(4,44,112); fill-rule: evenodd; opacity: 1;" transform=" translate(-200.005, -199.9129)" d="M 107.006 0.294 C 106.569 0.404 105.918 0.834 105.559 1.247 C 105.2 1.661 104.652 2 104.341 2 C 104.031 2 103.517 2.36 103.2 2.8 C 102.883 3.24 102.395 3.6 102.115 3.6 C 101.836 3.6 101.091 4.14 100.46 4.8 C 99.829 5.46 99.058 6 98.745 6 C 98.432 6 97.917 6.36 97.6 6.8 C 97.283 7.24 96.703 7.6 96.312 7.6 C 95.92 7.6 95.6 7.735 95.599 7.9 C 95.599 8.065 94.789 8.712 93.799 9.337 C 92.81 9.962 92 10.637 92 10.837 C 92 11.037 91.758 11.2 91.462 11.2 C 91.166 11.2 90.598 11.56 90.2 12 C 89.802 12.44 89.226 12.8 88.92 12.8 C 88.614 12.8 87.91 13.253 87.356 13.808 C 86.802 14.362 86.213 14.731 86.047 14.629 C 85.881 14.527 85.493 14.793 85.185 15.221 C 84.876 15.65 84.42 16 84.171 16 C 83.922 16 83.194 16.495 82.552 17.1 C 81.911 17.705 80.894 18.455 80.293 18.768 C 79.692 19.08 79.2 19.485 79.2 19.668 C 79.2 19.85 78.958 20 78.662 20 C 78.366 20 77.798 20.36 77.4 20.8 C 77.002 21.24 76.506 21.6 76.298 21.6 C 76.091 21.6 75.417 22.14 74.8 22.8 C 74.183 23.46 73.391 24 73.04 24 C 72.688 24 72.4 24.153 72.4 24.339 C 72.4 24.526 71.68 25.003 70.8 25.4 C 69.92 25.797 69.2 26.262 69.2 26.434 C 69.2 26.606 68.834 26.862 68.387 27.004 C 67.94 27.146 67.138 27.698 66.605 28.231 C 66.072 28.764 65.398 29.2 65.106 29.2 C 64.815 29.2 64.317 29.56 64 30 C 63.683 30.44 63.193 30.8 62.912 30.8 C 62.63 30.8 62.4 30.95 62.4 31.132 C 62.4 31.315 61.905 31.717 61.3 32.025 C 60.695 32.333 59.703 33.083 59.097 33.692 C 58.49 34.302 57.764 34.8 57.485 34.8 C 57.205 34.8 56.717 35.16 56.4 35.6 C 56.083 36.04 55.543 36.4 55.2 36.4 C 54.857 36.4 54.317 36.76 54 37.2 C 53.683 37.64 53.175 38 52.872 38 C 52.569 38 51.817 38.54 51.2 39.2 C 50.583 39.86 49.831 40.4 49.528 40.4 C 49.225 40.4 48.717 40.76 48.4 41.2 C 48.083 41.64 47.679 42 47.503 42 C 47.082 42 43.838 44.114 43.667 44.5 C 43.593 44.665 43.305 44.8 43.026 44.8 C 42.747 44.8 41.994 45.295 41.352 45.9 C 40.711 46.505 39.694 47.255 39.093 47.568 C 38.492 47.88 38 48.285 38 48.468 C 38 48.65 37.68 48.8 37.288 48.8 C 36.897 48.8 36.317 49.16 36 49.6 C 35.683 50.04 35.22 50.4 34.971 50.4 C 34.722 50.4 33.994 50.895 33.352 51.5 C 32.711 52.105 31.694 52.855 31.093 53.168 C 30.492 53.48 30 53.885 30 54.068 C 30 54.25 29.764 54.4 29.475 54.4 C 29.187 54.4 28.564 54.76 28.092 55.2 C 27.62 55.64 27.118 56 26.977 56 C 26.836 56 26.217 56.54 25.6 57.2 C 24.983 57.86 24.191 58.4 23.84 58.4 C 23.488 58.4 23.2 58.61 23.2 58.867 C 23.2 59.123 23.083 59.216 22.94 59.073 C 22.796 58.93 22.441 59.125 22.151 59.506 C 21.486 60.38 21.341 194.993 22.005 195.403 C 22.222 195.537 22.4 197.336 22.4 199.4 C 22.4 201.47 22.579 203.264 22.8 203.4 C 23.02 203.536 23.2 204.807 23.2 206.224 C 23.2 207.675 23.375 208.8 23.6 208.8 C 23.82 208.8 24 209.7 24 210.8 C 24 211.9 24.158 212.8 24.352 212.8 C 24.545 212.8 24.798 213.835 24.912 215.1 C 25.125 217.451 25.341 218.598 25.86 220.132 C 26.021 220.609 26.11 221.299 26.058 221.665 C 26.005 222.03 26.15 222.446 26.381 222.588 C 26.611 222.731 26.8 223.276 26.8 223.8 C 26.8 224.324 26.98 224.864 27.2 225 C 27.42 225.136 27.6 225.779 27.6 226.429 C 27.6 227.079 27.774 227.923 27.986 228.305 C 28.198 228.687 28.937 230.71 29.627 232.8 C 30.317 234.89 31.043 236.771 31.241 236.98 C 31.438 237.189 31.6 237.774 31.6 238.28 C 31.6 238.786 31.78 239.2 32 239.2 C 32.22 239.2 32.4 239.65 32.4 240.2 C 32.4 240.75 32.58 241.2 32.8 241.2 C 33.02 241.2 33.2 241.65 33.2 242.2 C 33.2 242.75 33.38 243.2 33.6 243.2 C 33.82 243.2 34 243.545 34 243.967 C 34 244.388 34.178 244.793 34.397 244.867 C 34.615 244.94 34.833 245.482 34.881 246.071 C 34.93 246.66 35.112 247.055 35.285 246.948 C 35.458 246.84 35.6 247.113 35.6 247.553 C 35.6 247.993 35.78 248.464 36 248.6 C 36.22 248.736 36.4 249.197 36.4 249.624 C 36.4 250.051 36.58 250.4 36.8 250.4 C 37.02 250.4 37.2 250.76 37.2 251.2 C 37.2 251.64 37.38 252 37.6 252 C 37.82 252 38 252.36 38 252.8 C 38 253.24 38.18 253.6 38.4 253.6 C 38.62 253.6 38.8 253.96 38.8 254.4 C 38.8 254.84 38.946 255.2 39.125 255.2 C 39.304 255.2 39.698 255.83 40 256.6 C 40.302 257.37 40.696 258 40.875 258 C 41.054 258 41.2 258.259 41.2 258.576 C 41.2 259.265 44.851 266.542 45.292 266.733 C 45.461 266.807 45.6 267.212 45.6 267.633 C 45.6 268.055 45.78 268.4 46 268.4 C 46.22 268.4 46.4 268.636 46.4 268.925 C 46.4 269.213 46.76 269.836 47.2 270.308 C 47.64 270.78 48 271.362 48 271.6 C 48 271.838 48.331 272.389 48.736 272.823 C 49.141 273.258 49.725 274.105 50.033 274.707 C 50.342 275.308 50.911 276.091 51.297 276.447 C 51.684 276.803 52 277.305 52 277.564 C 52 277.822 52.36 278.42 52.8 278.892 C 53.24 279.364 53.6 279.987 53.6 280.275 C 53.6 280.564 53.78 280.8 54 280.8 C 54.22 280.8 54.4 281.043 54.4 281.341 C 54.4 281.638 54.94 282.446 55.6 283.137 C 56.26 283.828 56.8 284.625 56.8 284.908 C 56.8 285.191 57.16 285.683 57.6 286 C 58.04 286.317 58.4 286.781 58.4 287.031 C 58.4 287.525 61.164 291.316 61.682 291.533 C 61.857 291.607 62 291.9 62 292.185 C 62 292.47 62.705 293.43 63.567 294.318 C 64.429 295.206 65.062 296.004 64.975 296.092 C 64.888 296.179 65.443 296.915 66.208 297.726 C 66.974 298.538 67.6 299.393 67.6 299.627 C 67.6 299.861 68.5 300.929 69.6 302 C 70.7 303.071 71.6 304.063 71.6 304.203 C 71.6 304.343 72.433 305.338 73.451 306.413 C 74.469 307.488 75.584 308.78 75.928 309.284 C 76.272 309.788 76.744 310.332 76.977 310.494 C 77.21 310.656 77.274 310.791 77.119 310.794 C 76.965 310.797 78.09 312.056 79.619 313.592 C 81.149 315.127 82.4 316.531 82.4 316.711 C 82.4 316.89 82.932 317.479 83.583 318.019 C 84.234 318.558 84.774 319.236 84.783 319.524 C 84.792 319.812 84.98 319.936 85.2 319.8 C 85.42 319.664 85.608 319.788 85.618 320.076 C 85.629 320.364 86.355 321.23 87.232 322 C 89.573 324.055 94.417 328.8 94.174 328.8 C 94.058 328.8 94.414 329.25 94.964 329.8 C 95.514 330.35 96.109 330.8 96.286 330.8 C 96.463 330.8 96.832 331.16 97.107 331.6 C 97.382 332.04 97.779 332.4 97.989 332.4 C 98.199 332.4 99.996 333.993 101.983 335.94 C 103.969 337.887 106.397 339.988 107.379 340.608 C 108.36 341.229 109.071 341.886 108.958 342.068 C 108.845 342.251 109.044 342.4 109.4 342.4 C 109.756 342.4 109.936 342.58 109.8 342.8 C 109.664 343.02 109.844 343.2 110.2 343.2 C 110.556 343.2 110.753 343.353 110.637 343.54 C 110.522 343.727 110.909 344.132 111.498 344.44 C 112.087 344.748 113.47 345.855 114.572 346.9 C 115.674 347.945 116.733 348.8 116.927 348.8 C 117.121 348.8 117.783 349.34 118.4 350 C 119.017 350.66 119.719 351.2 119.96 351.2 C 120.202 351.2 120.4 351.38 120.4 351.6 C 120.4 351.82 120.598 352 120.84 352 C 121.081 352 121.783 352.54 122.4 353.2 C 123.017 353.86 123.737 354.4 124 354.4 C 124.263 354.4 124.983 354.94 125.6 355.6 C 126.217 356.26 126.841 356.8 126.987 356.8 C 127.134 356.8 127.843 357.25 128.564 357.8 C 129.286 358.35 129.995 358.8 130.141 358.8 C 130.288 358.8 130.972 359.34 131.663 360 C 132.354 360.66 133.074 361.2 133.263 361.2 C 133.452 361.2 134.172 361.74 134.863 362.4 C 135.554 363.06 136.322 363.6 136.571 363.6 C 136.82 363.6 137.283 363.96 137.6 364.4 C 137.917 364.84 138.457 365.2 138.8 365.2 C 139.143 365.2 139.683 365.56 140 366 C 140.317 366.44 140.799 366.8 141.07 366.8 C 141.342 366.8 141.99 367.205 142.512 367.7 C 143.959 369.074 145.174 370 145.529 370 C 145.705 370 146.198 370.324 146.625 370.72 C 147.051 371.116 147.67 371.562 148 371.712 C 148.33 371.861 149.32 372.43 150.2 372.975 C 151.08 373.521 152.385 374.266 153.1 374.629 C 153.815 374.993 154.4 375.451 154.4 375.646 C 154.4 375.841 154.678 376 155.017 376 C 155.356 376 156.02 376.36 156.492 376.8 C 156.964 377.24 157.587 377.6 157.875 377.6 C 158.164 377.6 158.4 377.78 158.4 378 C 158.4 378.22 158.642 378.4 158.938 378.4 C 159.234 378.4 159.802 378.76 160.2 379.2 C 160.598 379.64 161.166 380 161.462 380 C 161.758 380 162 380.18 162 380.4 C 162 380.62 162.278 380.8 162.617 380.8 C 162.956 380.8 163.62 381.16 164.092 381.6 C 164.564 382.04 165.187 382.4 165.475 382.4 C 165.764 382.4 166 382.58 166 382.8 C 166 383.02 166.32 383.2 166.712 383.2 C 167.103 383.2 167.683 383.56 168 384 C 168.317 384.44 168.897 384.8 169.288 384.8 C 169.68 384.8 170 384.98 170 385.2 C 170 385.42 170.345 385.6 170.767 385.6 C 171.188 385.6 171.593 385.766 171.667 385.97 C 171.74 386.173 172.07 386.398 172.4 386.47 C 172.73 386.541 173.315 386.943 173.7 387.361 C 174.085 387.78 174.4 387.995 174.4 387.839 C 174.4 387.582 176.718 388.712 177.2 389.204 C 177.31 389.316 178.48 389.941 179.8 390.591 C 181.12 391.242 182.26 391.915 182.333 392.087 C 182.407 392.259 182.812 392.4 183.233 392.4 C 183.655 392.4 184 392.58 184 392.8 C 184 393.02 184.36 393.2 184.8 393.2 C 185.24 393.2 185.6 393.38 185.6 393.6 C 185.6 393.82 185.96 394 186.4 394 C 186.84 394 187.2 394.18 187.2 394.4 C 187.2 394.62 187.56 394.8 188 394.8 C 188.44 394.8 188.8 394.98 188.8 395.2 C 188.8 395.42 189.16 395.6 189.6 395.6 C 190.04 395.6 190.4 395.78 190.4 396 C 190.4 396.22 190.76 396.4 191.2 396.4 C 191.64 396.4 192 396.546 192 396.725 C 192 396.904 192.63 397.298 193.4 397.6 C 194.17 397.902 194.8 398.296 194.8 398.475 C 194.8 398.654 195.145 398.8 195.567 398.8 C 195.988 398.8 196.408 399.025 196.5 399.3 C 196.734 400.001 203.266 400.001 203.5 399.3 C 203.592 399.025 204.012 398.8 204.433 398.8 C 204.855 398.8 205.2 398.62 205.2 398.4 C 205.2 398.18 205.56 398 206 398 C 206.44 398 206.8 397.82 206.8 397.6 C 206.8 397.38 207.07 397.2 207.4 397.2 C 207.73 397.2 208 397.02 208 396.8 C 208 396.58 208.36 396.4 208.8 396.4 C 209.24 396.4 209.6 396.22 209.6 396 C 209.6 395.78 209.96 395.6 210.4 395.6 C 210.84 395.6 211.2 395.42 211.2 395.2 C 211.2 394.98 211.56 394.8 212 394.8 C 212.44 394.8 212.8 394.62 212.8 394.4 C 212.8 394.18 213.16 394 213.6 394 C 214.04 394 214.4 393.82 214.4 393.6 C 214.4 393.38 214.76 393.2 215.2 393.2 C 215.64 393.2 216 393.02 216 392.8 C 216 392.58 216.36 392.4 216.8 392.4 C 217.24 392.4 217.6 392.26 217.6 392.088 C 217.6 391.916 218.5 391.427 219.6 391 C 220.7 390.573 221.6 390.117 221.6 389.987 C 221.6 389.856 222.23 389.502 223 389.2 C 223.77 388.898 224.4 388.504 224.4 388.325 C 224.4 388.146 224.76 388 225.2 388 C 225.64 388 226 387.82 226 387.6 C 226 387.38 226.27 387.2 226.6 387.2 C 226.93 387.2 227.2 387.02 227.2 386.8 C 227.2 386.58 227.47 386.4 227.8 386.4 C 228.13 386.4 228.4 386.22 228.4 386 C 228.4 385.78 228.76 385.6 229.2 385.6 C 229.64 385.6 230 385.42 230 385.2 C 230 384.98 230.236 384.8 230.525 384.8 C 230.813 384.8 231.436 384.44 231.908 384 C 232.38 383.56 233.044 383.2 233.383 383.2 C 233.722 383.2 234 383.02 234 382.8 C 234 382.58 234.36 382.4 234.8 382.4 C 235.24 382.4 235.6 382.22 235.6 382 C 235.6 381.78 235.87 381.6 236.2 381.6 C 236.53 381.6 236.8 381.42 236.8 381.2 C 236.8 380.98 237.07 380.8 237.4 380.8 C 237.73 380.8 238 380.62 238 380.4 C 238 380.18 238.32 380 238.712 380 C 239.103 380 239.683 379.64 240 379.2 C 240.317 378.76 240.807 378.4 241.088 378.4 C 241.37 378.4 241.6 378.22 241.6 378 C 241.6 377.78 241.92 377.6 242.312 377.6 C 242.703 377.6 243.283 377.24 243.6 376.8 C 243.917 376.36 244.482 376 244.855 376 C 245.228 376 245.593 375.865 245.667 375.7 C 245.74 375.535 246.834 374.86 248.099 374.2 C 249.363 373.54 250.398 372.877 250.399 372.727 C 250.399 372.577 250.759 372.34 251.198 372.201 C 251.636 372.062 252.224 371.734 252.503 371.474 C 252.782 371.213 253.908 370.375 255.005 369.612 C 256.102 368.848 257.349 367.903 257.775 367.512 C 258.202 367.12 258.747 366.8 258.987 366.8 C 259.227 366.8 259.683 366.44 260 366 C 260.317 365.56 260.857 365.2 261.2 365.2 C 261.543 365.2 262.083 364.84 262.4 364.4 C 262.717 363.96 263.225 363.6 263.528 363.6 C 263.831 363.6 264.583 363.06 265.2 362.4 C 265.817 361.74 266.543 361.2 266.814 361.2 C 267.084 361.2 267.597 360.868 267.953 360.463 C 268.309 360.057 269.039 359.493 269.575 359.209 C 270.111 358.924 270.741 358.533 270.975 358.34 C 271.209 358.146 272.255 357.353 273.3 356.576 C 274.345 355.799 275.2 354.981 275.2 354.758 C 275.2 354.535 275.37 354.458 275.577 354.586 C 275.785 354.714 276.589 354.185 277.364 353.409 C 278.139 352.634 278.973 352 279.218 352 C 279.463 352 280.354 351.28 281.2 350.4 C 282.046 349.52 282.943 348.8 283.195 348.8 C 283.446 348.8 284.529 347.9 285.6 346.8 C 286.671 345.7 287.712 344.8 287.911 344.8 C 288.111 344.8 289.382 343.72 290.735 342.4 C 292.088 341.08 293.374 340 293.592 340 C 293.81 340 295.519 338.47 297.389 336.6 C 299.259 334.73 300.97 333.2 301.191 333.2 C 301.412 333.2 301.818 332.84 302.093 332.4 C 302.368 331.96 302.701 331.6 302.834 331.6 C 302.967 331.6 304.098 330.61 305.347 329.4 C 306.596 328.19 307.495 327.2 307.345 327.2 C 307.195 327.2 307.837 326.525 308.773 325.7 C 311.865 322.974 316.8 318.001 316.8 317.611 C 316.8 317.401 317.16 317.035 317.6 316.8 C 318.04 316.565 318.4 316.195 318.4 315.979 C 318.4 315.762 319.525 314.448 320.9 313.057 C 323.661 310.265 325.2 308.514 325.2 308.166 C 325.2 308.04 325.92 307.246 326.8 306.4 C 327.68 305.554 328.4 304.669 328.4 304.431 C 328.4 304.194 328.58 304 328.8 304 C 329.02 304 329.2 303.82 329.2 303.6 C 329.2 303.381 329.92 302.459 330.8 301.552 C 331.68 300.645 332.4 299.745 332.4 299.552 C 332.4 299.359 333.12 298.459 334 297.552 C 334.88 296.645 335.6 295.727 335.6 295.512 C 335.6 295.297 336.14 294.617 336.8 294 C 337.46 293.383 338 292.591 338 292.24 C 338 291.888 338.177 291.6 338.394 291.6 C 338.611 291.6 339.286 290.835 339.894 289.9 C 340.502 288.965 341.135 288.14 341.3 288.067 C 341.465 287.993 341.6 287.628 341.6 287.255 C 341.6 286.882 341.96 286.317 342.4 286 C 342.84 285.683 343.2 285.093 343.2 284.688 C 343.2 284.284 343.38 284.064 343.6 284.2 C 343.82 284.336 344 284.206 344 283.912 C 344 283.617 344.36 283.117 344.8 282.8 C 345.24 282.483 345.6 281.943 345.6 281.6 C 345.6 281.257 345.96 280.717 346.4 280.4 C 346.84 280.083 347.2 279.503 347.2 279.112 C 347.2 278.72 347.38 278.4 347.6 278.4 C 347.82 278.4 348 278.08 348 277.688 C 348 277.297 348.36 276.717 348.8 276.4 C 349.24 276.083 349.6 275.627 349.6 275.387 C 349.6 275.147 349.925 274.602 350.322 274.175 C 350.72 273.749 351.303 272.815 351.62 272.1 C 351.936 271.385 352.303 270.8 352.435 270.8 C 352.566 270.8 353.105 269.945 353.632 268.9 C 354.158 267.855 354.715 266.907 354.869 266.792 C 355.368 266.421 358.8 259.309 358.8 258.645 C 358.8 258.29 358.98 258 359.2 258 C 359.42 258 359.6 257.73 359.6 257.4 C 359.6 257.07 359.78 256.8 360 256.8 C 360.22 256.8 360.4 256.44 360.4 256 C 360.4 255.56 360.58 255.2 360.8 255.2 C 361.02 255.2 361.2 254.84 361.2 254.4 C 361.2 253.96 361.38 253.6 361.6 253.6 C 361.82 253.6 362 253.24 362 252.8 C 362 252.36 362.18 252 362.4 252 C 362.62 252 362.8 251.64 362.8 251.2 C 362.8 250.76 362.98 250.4 363.2 250.4 C 363.42 250.4 363.6 250.04 363.6 249.6 C 363.6 249.16 363.78 248.8 364 248.8 C 364.22 248.8 364.4 248.451 364.4 248.024 C 364.4 247.597 364.58 247.136 364.8 247 C 365.02 246.864 365.2 246.313 365.2 245.776 C 365.2 245.239 365.38 244.8 365.6 244.8 C 365.82 244.8 366 244.44 366 244 C 366 243.56 366.18 243.2 366.4 243.2 C 366.62 243.2 366.8 242.851 366.8 242.424 C 366.8 241.997 366.98 241.536 367.2 241.4 C 367.42 241.264 367.6 240.803 367.6 240.376 C 367.6 239.949 367.78 239.6 368 239.6 C 368.22 239.6 368.4 239.06 368.4 238.4 C 368.4 237.74 368.58 237.2 368.8 237.2 C 369.02 237.2 369.2 236.851 369.2 236.424 C 369.2 235.997 369.38 235.536 369.6 235.4 C 369.82 235.264 370 234.713 370 234.176 C 370 233.639 370.18 233.2 370.4 233.2 C 370.62 233.2 370.8 232.66 370.8 232 C 370.8 231.34 370.98 230.8 371.2 230.8 C 371.42 230.8 371.6 230.26 371.6 229.6 C 371.6 228.94 371.741 228.4 371.913 228.4 C 372.085 228.4 372.262 227.958 372.307 227.418 C 372.42 226.052 372.563 225.433 372.821 225.2 C 372.942 225.09 373.354 223.74 373.737 222.2 C 374.119 220.66 374.523 219.04 374.634 218.6 C 374.745 218.16 374.944 216.85 375.075 215.688 C 375.207 214.527 375.469 213.481 375.657 213.365 C 375.846 213.248 376 212.173 376 210.976 C 376 209.779 376.18 208.8 376.4 208.8 C 376.626 208.8 376.8 207.667 376.8 206.2 C 376.8 204.733 376.974 203.6 377.2 203.6 C 377.44 203.6 377.6 202 377.6 199.6 C 377.6 197.2 377.76 195.6 378 195.6 C 378.644 195.6 378.545 60.083 377.9 59.46 C 377.625 59.194 376.545 58.442 375.501 57.788 C 374.456 57.135 373.601 56.465 373.601 56.3 C 373.6 56.135 373.37 56 373.088 56 C 372.807 56 372.317 55.64 372 55.2 C 371.683 54.76 371.143 54.4 370.8 54.4 C 370.457 54.4 369.917 54.04 369.6 53.6 C 369.283 53.16 368.775 52.8 368.472 52.8 C 368.169 52.8 367.417 52.26 366.8 51.6 C 366.183 50.94 365.431 50.4 365.128 50.4 C 364.825 50.4 364.317 50.04 364 49.6 C 363.683 49.16 363.143 48.8 362.8 48.8 C 362.457 48.8 361.917 48.44 361.6 48 C 361.283 47.56 360.787 47.2 360.497 47.2 C 360.208 47.2 359.573 46.842 359.086 46.405 C 356.717 44.278 354.799 42.927 352.5 41.765 C 351.785 41.404 351.2 40.949 351.2 40.754 C 351.2 40.559 350.919 40.4 350.576 40.4 C 350.233 40.4 350.064 40.22 350.2 40 C 350.336 39.78 350.116 39.6 349.712 39.6 C 349.307 39.6 348.717 39.24 348.4 38.8 C 348.083 38.36 347.543 38 347.2 38 C 346.857 38 346.317 37.64 346 37.2 C 345.683 36.76 345.175 36.4 344.872 36.4 C 344.569 36.4 343.842 35.905 343.257 35.3 C 342.671 34.695 341.935 34.144 341.622 34.075 C 341.308 34.006 340.748 33.601 340.378 33.175 C 340.009 32.749 339.542 32.4 339.341 32.4 C 339.141 32.4 338.717 32.04 338.4 31.6 C 338.083 31.16 337.503 30.8 337.112 30.8 C 336.72 30.8 336.399 30.665 336.397 30.5 C 336.396 30.335 335.721 29.752 334.897 29.204 C 334.074 28.656 333.31 28.091 333.2 27.949 C 333.004 27.695 331.334 26.66 329.038 25.369 C 328.398 25.009 327.509 24.374 327.062 23.957 C 326.615 23.541 326.053 23.2 325.813 23.2 C 325.573 23.2 325.117 22.84 324.8 22.4 C 324.483 21.96 324.033 21.6 323.8 21.6 C 323.567 21.6 323.117 21.24 322.8 20.8 C 322.483 20.36 321.943 20 321.6 20 C 321.257 20 320.717 19.64 320.4 19.2 C 320.083 18.76 319.575 18.4 319.272 18.4 C 318.969 18.4 318.217 17.86 317.6 17.2 C 316.983 16.54 316.191 16 315.84 16 C 315.488 16 315.2 15.85 315.2 15.668 C 315.2 15.485 314.705 15.081 314.1 14.77 C 313.495 14.46 312.709 13.889 312.353 13.503 C 311.997 13.116 311.494 12.8 311.235 12.8 C 310.976 12.8 310.328 12.364 309.795 11.831 C 309.262 11.298 308.46 10.746 308.013 10.604 C 307.566 10.462 307.2 10.175 307.2 9.967 C 307.2 9.758 306.57 9.287 305.8 8.919 C 305.03 8.552 304.4 8.105 304.4 7.926 C 304.4 7.747 304.08 7.6 303.688 7.6 C 303.297 7.6 302.717 7.24 302.4 6.8 C 302.083 6.36 301.583 6 301.288 6 C 300.994 6 300.864 5.82 301 5.6 C 301.136 5.38 300.916 5.2 300.512 5.2 C 300.107 5.2 299.517 4.84 299.2 4.4 C 298.883 3.96 298.343 3.6 298 3.6 C 297.657 3.6 297.117 3.24 296.8 2.8 C 296.483 2.36 295.985 2 295.694 2 C 295.402 2 294.714 1.55 294.164 1 L 293.164 0 L 200.482 0.046 C 149.507 0.072 107.443 0.183 107.006 0.294 M 282.783 36.863 C 284.781 38.27 290.349 42.163 301 49.6 C 303.048 51.03 306.495 53.426 308.662 54.925 C 310.828 56.424 313.86 58.541 315.4 59.63 C 316.94 60.718 319.82 62.712 321.8 64.06 C 323.78 65.408 325.772 66.846 326.226 67.255 C 326.68 67.665 327.173 68 327.321 68 C 327.47 68 327.908 68.262 328.295 68.582 C 328.967 69.138 335.186 73.514 340.1 76.89 L 342.4 78.47 L 342.381 135.335 C 342.362 189.28 342.246 196.091 341.231 202.497 C 340.157 209.28 336.708 221.001 333.756 227.9 C 333.45 228.615 332.909 229.875 332.554 230.7 C 330.23 236.097 326.03 244.34 322.107 251.2 C 319.979 254.921 314.052 264.11 312.595 265.946 C 312.309 266.306 310.054 269.3 307.583 272.6 C 305.112 275.9 302.978 278.69 302.84 278.8 C 302.702 278.91 301.781 279.989 300.795 281.199 C 294.509 288.901 280.796 303.109 272.8 310.205 C 271.37 311.474 269.474 313.162 268.587 313.956 C 267.7 314.75 265.99 316.208 264.787 317.195 C 263.584 318.181 262.51 319.096 262.4 319.227 C 262.29 319.358 259.86 321.302 257 323.548 C 254.14 325.794 251.53 327.852 251.2 328.122 C 250.87 328.391 249.97 329.054 249.2 329.595 C 248.43 330.136 247.62 330.721 247.4 330.895 C 243.524 333.964 220.899 349.2 220.218 349.2 C 220.134 349.2 218.465 350.179 216.511 351.375 C 210.519 355.043 200.679 360.4 199.934 360.4 C 199.546 360.4 198.367 359.925 197.314 359.344 C 193.861 357.439 192.222 356.526 190.7 355.657 C 189.875 355.185 188.615 354.468 187.9 354.062 C 186.428 353.226 176.833 347.422 172.6 344.807 C 169.332 342.789 162.691 338.375 162.4 338.029 C 162.29 337.898 160.76 336.81 159 335.61 C 155.882 333.485 144.799 325.275 144.4 324.794 C 144.29 324.662 143.823 324.294 143.363 323.977 C 142.902 323.66 141.732 322.738 140.763 321.928 C 139.793 321.119 137.723 319.409 136.162 318.128 C 123.695 307.901 108.914 293.107 97.869 279.8 C 94.867 276.183 94.767 276.056 93.614 274.4 C 93.077 273.63 92.539 272.91 92.418 272.8 C 92.201 272.603 90.475 270.288 87.349 266 C 84.648 262.296 79.859 254.84 77.201 250.2 C 76.823 249.54 76.038 248.19 75.457 247.2 C 73.515 243.888 67.327 231.04 66.018 227.6 C 65.306 225.73 64.571 223.84 64.383 223.4 C 63.948 222.378 61.868 215.953 61.21 213.6 C 60.934 212.61 60.57 211.35 60.403 210.8 C 59.891 209.115 58.752 203.334 57.999 198.6 C 57.683 196.61 57.59 178.787 57.677 137.001 L 57.8 78.203 L 61.26 75.801 C 63.163 74.481 67.663 71.343 71.26 68.83 C 74.857 66.316 79.69 62.943 82 61.335 C 84.31 59.726 88.9 56.524 92.2 54.219 C 95.5 51.915 100.515 48.447 103.343 46.514 C 106.172 44.582 108.692 42.813 108.943 42.585 C 109.354 42.212 112.6 39.932 118.2 36.084 L 120.2 34.71 L 200.383 35.006 L 280.567 35.301 L 282.783 36.863" stroke-linecap="round"/>
</g>
		<g transform="matrix(1 0 0 1 -11.9496 -16.104)" id="path2">
<path style="stroke: none; stroke-width: 1; stroke-dasharray: none; stroke-linecap: butt; stroke-dashoffset: 0; stroke-linejoin: miter; stroke-miterlimit: 4; is-custom-font: none; font-file-url: none; fill: rgb(4,116,251); fill-rule: evenodd; opacity: 1;" transform=" translate(-188.0504, -183.896)" d="M 139.93 35.1 C 151.002 35.159 169.002 35.159 179.93 35.1 C 190.859 35.041 181.8 34.992 159.8 34.992 C 137.8 34.992 128.859 35.041 139.93 35.1 M 200 118.6 C 200 151.49 200.151 178.4 200.336 178.4 C 200.521 178.4 201.978 177.005 203.575 175.3 C 205.171 173.595 212.444 166.08 219.736 158.6 C 227.029 151.12 235.269 142.66 238.048 139.8 C 240.826 136.94 246.426 131.194 250.492 127.031 L 257.884 119.463 L 259.042 120.305 C 259.679 120.768 263.58 124.54 267.711 128.688 L 275.222 136.23 L 270.763 140.815 C 268.31 143.337 264.029 147.74 261.249 150.6 C 258.47 153.46 251.606 160.497 245.998 166.239 C 240.389 171.98 233.739 178.82 231.219 181.439 C 228.699 184.057 222.129 190.802 216.619 196.427 C 211.109 202.052 205.115 208.195 203.3 210.078 L 200 213.502 L 200 273.151 C 200 318.621 200.112 332.8 200.471 332.8 C 200.73 332.8 202.442 331.9 204.276 330.8 C 206.11 329.7 207.789 328.8 208.006 328.8 C 208.222 328.8 208.4 328.65 208.4 328.468 C 208.4 328.285 208.895 327.882 209.5 327.572 C 212.069 326.257 231.886 312.999 232.8 311.984 C 232.91 311.861 233.63 311.329 234.4 310.8 C 235.17 310.271 235.89 309.739 236 309.618 C 236.11 309.497 237.28 308.589 238.6 307.6 C 241.994 305.056 249.066 299.356 251.218 297.428 C 252.218 296.533 254.194 294.81 255.608 293.6 C 258.451 291.167 271.976 277.795 276.039 273.4 C 283.571 265.25 294.795 250.484 299.66 242.321 C 305.327 232.813 311.19 221.031 312.857 215.8 C 313.137 214.92 313.477 214.02 313.611 213.8 C 313.746 213.58 314.086 212.59 314.367 211.6 C 314.648 210.61 315.04 209.487 315.239 209.105 C 315.438 208.723 315.6 207.969 315.6 207.429 C 315.6 206.889 315.76 206.348 315.956 206.227 C 316.151 206.106 316.414 205.421 316.539 204.704 C 316.664 203.987 316.962 202.41 317.201 201.2 C 318.249 195.895 318.352 190.696 318.375 142.11 L 318.4 90.821 L 314.7 88.344 C 312.665 86.982 310.91 85.752 310.8 85.611 C 310.69 85.47 307.746 83.385 304.258 80.978 C 293.93 73.849 293.03 73.222 292.368 72.699 C 292.021 72.425 291.456 72.02 291.112 71.8 C 290.115 71.161 282.86 66.134 279.8 63.961 C 278.26 62.868 275.975 61.259 274.722 60.386 L 272.444 58.8 L 236.222 58.8 L 200 58.8 L 200 118.6 M 57.701 196.2 C 57.705 197.08 57.787 197.393 57.883 196.895 C 57.979 196.398 57.975 195.678 57.875 195.295 C 57.775 194.913 57.696 195.32 57.701 196.2 M 106.8 290.2 C 107.546 290.97 108.247 291.6 108.357 291.6 C 108.467 291.6 107.946 290.97 107.2 290.2 C 106.454 289.43 105.753 288.8 105.643 288.8 C 105.533 288.8 106.054 289.43 106.8 290.2 M 116.2 300 C 118.392 302.2 120.275 304 120.385 304 C 120.495 304 118.792 302.2 116.6 300 C 114.408 297.8 112.525 296 112.415 296 C 112.305 296 114.008 297.8 116.2 300 M 125.4 308.8 C 126.259 309.68 127.052 310.4 127.162 310.4 C 127.272 310.4 126.659 309.68 125.8 308.8 C 124.941 307.92 124.148 307.2 124.038 307.2 C 123.928 307.2 124.541 307.92 125.4 308.8" stroke-linecap="round"/>
</g>
		<g transform="matrix(1 0 0 1 0.179 -4)" id="path3">
<path style="stroke: none; stroke-width: 1; stroke-dasharray: none; stroke-linecap: butt; stroke-dashoffset: 0; stroke-linejoin: miter; stroke-miterlimit: 4; is-custom-font: none; font-file-url: none; fill: rgb(4,180,252); fill-rule: evenodd; opacity: 1;" transform=" translate(-200.1791, -196)" d="M 126.2 59.786 C 124.761 60.951 113.642 68.743 108.6 72.121 C 106.62 73.447 104.91 74.653 104.8 74.8 C 104.69 74.947 102.98 76.175 101 77.529 C 97.019 80.252 85.953 87.933 83.315 89.805 L 81.63 91 L 81.615 142.523 C 81.606 172.029 81.755 194.762 81.964 195.723 C 82.164 196.645 82.543 198.66 82.807 200.2 C 83.653 205.147 86.508 214.694 88.489 219.2 C 88.924 220.19 89.429 221.36 89.61 221.8 C 90.344 223.575 95.287 233.518 96.272 235.2 C 96.852 236.19 97.53 237.36 97.778 237.8 C 100.548 242.704 107.144 252.756 109.435 255.562 C 109.721 255.913 110.815 257.37 111.865 258.8 C 112.916 260.23 113.872 261.49 113.991 261.6 C 114.109 261.71 116.002 263.96 118.196 266.6 C 127.848 278.215 141.278 291.35 154.2 301.816 C 156.62 303.776 158.69 305.483 158.8 305.609 C 158.91 305.735 159.63 306.271 160.4 306.8 C 161.17 307.329 161.89 307.866 162 307.994 C 163.09 309.265 185.317 324.583 188.1 325.982 C 188.705 326.286 189.2 326.685 189.2 326.868 C 189.2 327.05 189.393 327.2 189.628 327.2 C 189.863 327.2 190.841 327.74 191.8 328.4 C 192.759 329.06 193.64 329.6 193.758 329.6 C 193.875 329.6 195.306 330.41 196.936 331.4 C 198.567 332.39 199.969 333.2 200.051 333.2 C 200.133 333.2 200.2 306.245 200.2 273.3 L 200.2 213.4 L 195.746 218 C 179.037 235.258 181.228 233.684 178.039 230.718 C 176.807 229.573 173.37 226.362 170.4 223.581 C 167.43 220.8 163.666 217.282 162.036 215.763 C 160.406 214.243 158.052 212.01 156.805 210.8 C 155.559 209.59 153.653 207.816 152.569 206.858 C 151.486 205.9 148.969 203.56 146.975 201.658 C 144.981 199.756 142.28 197.21 140.972 196 C 139.664 194.79 136.256 191.612 133.397 188.939 C 130.539 186.265 127.435 183.408 126.5 182.59 C 124.249 180.622 123.638 181.696 132.184 172.6 C 134.664 169.96 137.672 166.746 138.867 165.459 L 141.04 163.117 L 142.42 164.25 C 143.812 165.393 147.128 168.45 150.176 171.4 C 151.085 172.28 154.072 175.068 156.814 177.596 C 159.557 180.123 163.06 183.389 164.6 184.853 C 166.14 186.317 168.64 188.659 170.156 190.058 C 171.672 191.456 174.282 193.919 175.956 195.532 C 180.305 199.72 179.811 199.697 183.387 195.887 C 185.084 194.079 189.562 189.45 193.337 185.6 L 200.2 178.6 L 200.099 118.7 L 199.997 58.8 L 163.699 58.807 L 127.4 58.815 L 126.2 59.786 M 318.594 141.4 C 318.594 168.9 318.642 180.091 318.7 166.269 C 318.758 152.447 318.758 129.947 318.7 116.269 C 318.642 102.591 318.594 113.9 318.594 141.4" stroke-linecap="round"/>
</g>
		<g transform="matrix(1 0 0 1 -0.0055 -0.689)" id="path4">
<path style="stroke: none; stroke-width: 1; stroke-dasharray: none; stroke-linecap: butt; stroke-dashoffset: 0; stroke-linejoin: miter; stroke-miterlimit: 4; is-custom-font: none; font-file-url: none; fill: rgb(65,197,252); fill-rule: evenodd; opacity: 1;" transform=" translate(-199.9945, -199.311)" d="M 108.1 43.24 C 107.165 43.902 106.4 44.533 106.4 44.641 C 106.4 44.75 107.21 44.281 108.2 43.6 C 109.19 42.919 110 42.28 110 42.181 C 110 41.905 109.924 41.948 108.1 43.24 M 294.433 45.33 C 294.525 45.401 295.23 45.866 296 46.363 L 297.4 47.266 L 296.2 46.235 C 295.54 45.668 294.835 45.203 294.633 45.202 C 294.432 45.201 294.342 45.258 294.433 45.33 M 87.4 57.835 L 86.2 58.866 L 87.5 58.006 C 88.215 57.533 88.8 57.068 88.8 56.973 C 88.8 56.673 88.631 56.778 87.4 57.835 M 123.6 61.07 C 121.51 62.536 116.83 65.807 113.2 68.339 C 100.412 77.258 97.875 79.028 93.618 82 C 91.255 83.65 87.5 86.26 85.275 87.8 L 81.229 90.6 L 81.214 142.88 C 81.205 176.791 81.343 195.905 81.608 197.28 C 82.953 204.279 83.678 207.077 85.68 213 C 87.889 219.534 92.272 229.224 95.948 235.7 C 100.65 243.981 103.832 248.843 109.738 256.769 C 130.453 284.57 159.315 309.6 195.509 331.153 C 200.416 334.074 199.816 334.027 203.565 331.783 C 207.768 329.267 207.973 329.14 209.865 327.9 C 210.789 327.295 211.737 326.8 211.972 326.8 C 212.207 326.8 212.4 326.62 212.4 326.4 C 212.4 326.18 212.589 326 212.819 326 C 213.5 326 231.428 313.829 234.8 311.078 C 235.13 310.809 236.03 310.15 236.8 309.614 C 237.57 309.077 238.29 308.539 238.4 308.417 C 238.51 308.295 239.259 307.704 240.065 307.104 C 240.871 306.503 241.776 305.784 242.075 305.506 C 242.375 305.228 243.425 304.372 244.41 303.606 C 256.758 293.986 272.702 278.526 282.367 266.8 C 285.509 262.988 285.541 262.948 287.206 260.8 C 287.972 259.81 288.699 258.91 288.819 258.8 C 288.94 258.69 289.471 257.97 290 257.2 C 290.529 256.43 291.07 255.71 291.202 255.6 C 292.006 254.93 300.093 242.657 302.403 238.6 C 302.779 237.94 303.558 236.59 304.134 235.6 C 305.121 233.904 310.072 223.936 310.79 222.2 C 310.971 221.76 311.495 220.553 311.953 219.519 C 314.096 214.68 316.828 205.688 316 206.2 C 315.78 206.336 315.6 206.889 315.6 207.429 C 315.6 207.969 315.438 208.723 315.239 209.105 C 315.04 209.487 314.648 210.61 314.367 211.6 C 314.086 212.59 313.746 213.58 313.611 213.8 C 313.477 214.02 313.137 214.92 312.857 215.8 C 310.219 224.078 298.049 246.307 292.201 253.527 C 291.901 253.897 290.439 255.82 288.952 257.8 C 276.35 274.578 256.68 294.032 238.598 307.599 C 237.279 308.588 236.11 309.497 236 309.618 C 235.89 309.739 235.17 310.271 234.4 310.8 C 233.63 311.329 232.91 311.862 232.8 311.986 C 231.854 313.045 212.295 326.126 209.5 327.568 C 208.895 327.88 208.4 328.285 208.4 328.468 C 208.4 328.65 208.217 328.8 207.993 328.8 C 207.769 328.8 206.284 329.585 204.693 330.544 C 199.701 333.553 200.36 333.478 196.972 331.422 C 195.322 330.42 193.875 329.6 193.758 329.6 C 193.64 329.6 192.759 329.06 191.8 328.4 C 190.841 327.74 189.863 327.2 189.628 327.2 C 189.393 327.2 189.2 327.05 189.2 326.868 C 189.2 326.685 188.705 326.286 188.1 325.982 C 185.317 324.583 163.09 309.265 162 307.994 C 161.89 307.866 161.17 307.329 160.4 306.8 C 159.63 306.271 158.91 305.735 158.8 305.609 C 158.69 305.483 156.62 303.776 154.2 301.816 C 141.278 291.35 127.848 278.215 118.196 266.6 C 116.002 263.96 114.109 261.71 113.991 261.6 C 113.872 261.49 112.916 260.23 111.865 258.8 C 110.815 257.37 109.721 255.913 109.435 255.562 C 107.144 252.756 100.548 242.704 97.778 237.8 C 97.53 237.36 96.852 236.19 96.272 235.2 C 95.287 233.518 90.344 223.575 89.61 221.8 C 89.429 221.36 88.924 220.19 88.489 219.2 C 86.508 214.694 83.653 205.147 82.807 200.2 C 82.543 198.66 82.164 196.645 81.964 195.723 C 81.755 194.762 81.606 172.029 81.615 142.523 L 81.63 91 L 83.315 89.805 C 85.953 87.933 97.019 80.252 101 77.529 C 102.98 76.175 104.69 74.947 104.8 74.8 C 104.91 74.653 106.62 73.447 108.6 72.121 C 113.642 68.743 124.761 60.951 126.2 59.786 L 127.4 58.815 L 199.96 58.807 L 272.52 58.8 L 277.16 62.09 C 281.784 65.369 289.935 71.04 291.116 71.8 C 291.457 72.02 292.021 72.425 292.368 72.699 C 292.716 72.974 294.108 73.964 295.462 74.899 C 307.695 83.347 310.704 85.462 311.375 86.083 C 311.802 86.477 312.372 86.8 312.642 86.8 C 312.912 86.8 313.193 86.947 313.267 87.128 C 313.34 87.308 314.509 88.204 315.863 89.118 C 317.218 90.032 318.419 91.01 318.532 91.29 C 318.674 91.644 318.747 91.612 318.768 91.186 C 318.786 90.849 318.267 90.257 317.615 89.872 C 316.963 89.487 316.198 88.942 315.915 88.661 C 315.632 88.379 312.52 86.19 309 83.795 C 305.48 81.4 302.51 79.327 302.4 79.187 C 302.29 79.047 300.58 77.826 298.6 76.473 C 294.864 73.92 288.355 69.396 284.2 66.462 C 282.88 65.531 280.18 63.661 278.2 62.307 C 276.22 60.953 274.251 59.52 273.825 59.123 C 273.083 58.431 269.895 58.4 200.225 58.403 L 127.4 58.406 L 123.6 61.07 M 313.233 58.53 C 313.325 58.601 314.03 59.066 314.8 59.563 L 316.2 60.466 L 315 59.435 C 314.34 58.868 313.635 58.403 313.433 58.402 C 313.232 58.401 313.142 58.458 313.233 58.53 M 322.8 64.943 C 322.8 65.043 323.719 65.785 324.842 66.592 C 325.965 67.399 326.765 67.868 326.621 67.634 C 326.32 67.148 322.8 64.668 322.8 64.943 M 66.2 72.635 L 65 73.666 L 66.4 72.763 C 68.196 71.604 68.201 71.6 67.767 71.602 C 67.565 71.603 66.86 72.068 66.2 72.635 M 57.785 78.5 C 57.68 78.775 57.641 105.1 57.697 137 L 57.8 195 L 58 136.5 C 58.11 104.325 58.149 78 58.087 78 C 58.026 78 57.889 78.225 57.785 78.5 M 342 135.92 L 342.2 193.8 L 342.301 136.221 C 342.357 104.553 342.267 78.507 342.101 78.341 C 341.936 78.176 341.89 104.086 342 135.92 M 246.372 131.293 C 240.117 137.725 231.648 146.41 227.552 150.593 C 223.456 154.777 217.156 161.255 213.552 164.988 C 209.948 168.722 202.384 176.462 196.742 182.188 C 191.101 187.915 185.093 194.079 183.393 195.887 C 179.81 199.697 180.305 199.72 175.956 195.532 C 174.282 193.919 171.672 191.456 170.156 190.058 C 168.64 188.659 166.14 186.317 164.6 184.853 C 163.06 183.389 159.557 180.123 156.814 177.596 C 154.072 175.068 151.085 172.28 150.176 171.4 C 147.128 168.45 143.812 165.393 142.42 164.25 L 141.04 163.117 L 138.867 165.459 C 137.672 166.746 134.664 169.96 132.184 172.6 C 123.638 181.696 124.249 180.622 126.5 182.59 C 127.435 183.408 130.539 186.265 133.397 188.939 C 136.256 191.612 139.664 194.79 140.972 196 C 142.28 197.21 144.981 199.756 146.975 201.658 C 148.969 203.56 151.486 205.9 152.569 206.858 C 153.653 207.816 155.559 209.59 156.805 210.8 C 158.052 212.01 160.406 214.243 162.036 215.763 C 163.666 217.282 167.43 220.8 170.4 223.581 C 173.37 226.362 176.807 229.573 178.039 230.718 C 179.27 231.863 180.531 232.8 180.841 232.8 C 181.336 232.8 190.032 224.022 202.617 210.822 C 204.808 208.523 211.102 202.043 216.604 196.422 C 222.106 190.8 228.694 184.04 231.243 181.4 C 233.793 178.76 240.271 172.1 245.638 166.6 C 258.278 153.647 265.247 146.492 270.767 140.8 L 275.228 136.2 L 266.861 127.9 C 262.259 123.335 258.325 119.6 258.119 119.6 C 257.912 119.6 252.626 124.862 246.372 131.293 M 268.289 129.865 C 272.933 134.416 274.394 136.078 274.139 136.522 C 273.825 137.07 257.253 154.171 239.565 172.2 C 235.464 176.38 229.609 182.401 226.554 185.58 C 223.499 188.759 216.941 195.509 211.979 200.58 C 207.018 205.651 200.261 212.59 196.963 216 C 183.901 229.507 181.053 232.4 180.831 232.388 C 180.593 232.377 179.835 231.684 171 223.408 C 168.14 220.729 164.546 217.382 163.014 215.969 C 161.481 214.556 158.691 211.946 156.814 210.168 C 154.936 208.39 151.963 205.6 150.207 203.968 C 148.451 202.336 145.389 199.47 143.403 197.6 C 135.421 190.084 128.661 183.787 127.172 182.482 C 125.15 180.709 125.108 180.871 128.5 177.271 C 130.095 175.578 133.544 171.9 136.165 169.097 C 141.802 163.067 140.794 163.299 144.857 167.1 C 146.68 168.805 151.238 173.071 154.986 176.579 C 170.16 190.784 173.149 193.582 176.542 196.751 L 180.084 200.059 L 183.297 196.729 C 185.065 194.898 192.651 187.1 200.155 179.399 C 207.66 171.699 215.33 163.795 217.2 161.835 C 219.07 159.875 222.67 156.174 225.2 153.609 C 227.73 151.045 234.66 143.935 240.6 137.81 C 246.54 131.685 252.906 125.154 254.746 123.297 L 258.091 119.92 L 260.096 121.86 C 261.198 122.927 264.885 126.529 268.289 129.865 M 318.271 194.146 C 318.099 195.876 318.043 197.376 318.146 197.48 C 318.429 197.762 318.891 193.551 318.727 192.188 C 318.649 191.535 318.444 192.416 318.271 194.146 M 341.4 199.2 C 341.248 199.891 341.207 200.541 341.309 200.642 C 341.411 200.744 341.609 200.253 341.75 199.55 C 342.083 197.883 341.76 197.56 341.4 199.2 M 317.378 200.178 C 317.227 200.981 317.194 201.727 317.304 201.837 C 317.414 201.947 317.627 201.381 317.778 200.578 C 317.928 199.775 317.962 199.028 317.852 198.918 C 317.742 198.808 317.528 199.375 317.378 200.178 M 58.493 200.4 C 58.493 201.17 58.575 201.485 58.676 201.1 C 58.776 200.715 58.776 200.085 58.676 199.7 C 58.575 199.315 58.493 199.63 58.493 200.4 M 316.649 203.415 C 316.512 203.773 316.416 204.456 316.436 204.933 C 316.462 205.547 316.585 205.408 316.859 204.456 C 317.257 203.072 317.094 202.258 316.649 203.415 M 340.649 203.815 C 340.512 204.173 340.415 204.766 340.434 205.133 C 340.453 205.5 340.627 205.269 340.821 204.62 C 341.198 203.358 341.065 202.733 340.649 203.815 M 338.249 213.815 C 338.112 214.173 338.015 214.766 338.034 215.133 C 338.053 215.5 338.227 215.269 338.421 214.62 C 338.798 213.358 338.665 212.733 338.249 213.815 M 320.953 252.5 C 319.576 254.836 319.486 255.035 320.187 254.2 C 321 253.232 321.7 252 321.438 252 C 321.333 252 321.115 252.225 320.953 252.5 M 317.446 258.2 C 317.091 258.75 316.509 259.695 316.153 260.3 L 315.505 261.4 L 316.31 260.426 C 317.26 259.276 318.521 257.2 318.269 257.2 C 318.171 257.2 317.801 257.65 317.446 258.2 M 90.175 269.732 C 90.791 270.539 91.376 271.2 91.475 271.2 C 91.753 271.2 90.021 268.86 89.509 268.544 C 89.259 268.389 89.559 268.924 90.175 269.732 M 307.544 272.3 C 306.393 273.689 305.906 274.4 306.104 274.4 C 306.214 274.4 306.786 273.77 307.373 273 C 308.463 271.571 308.595 271.032 307.544 272.3 M 92.8 273.2 C 93.27 273.86 93.744 274.4 93.854 274.4 C 93.964 274.4 93.67 273.86 93.2 273.2 C 92.73 272.54 92.256 272 92.146 272 C 92.036 272 92.33 272.54 92.8 273.2 M 99.2 281.325 C 99.2 281.394 99.785 281.979 100.5 282.625 L 101.8 283.8 L 100.625 282.5 C 99.53 281.288 99.2 281.016 99.2 281.325 M 101.6 284.125 C 101.6 284.194 102.185 284.779 102.9 285.425 L 104.2 286.6 L 103.025 285.3 C 101.93 284.088 101.6 283.816 101.6 284.125 M 296.975 285.3 L 295.8 286.6 L 297.1 285.425 C 297.815 284.779 298.4 284.194 298.4 284.125 C 298.4 283.816 298.07 284.088 296.975 285.3 M 105.6 288.6 C 106.346 289.37 107.047 290 107.157 290 C 107.267 290 106.746 289.37 106 288.6 C 105.254 287.83 104.553 287.2 104.443 287.2 C 104.333 287.2 104.854 287.83 105.6 288.6 M 288.792 294.3 L 285 298.2 L 288.9 294.408 C 291.045 292.322 292.8 290.567 292.8 290.508 C 292.8 290.218 292.314 290.678 288.792 294.3 M 111.4 294.8 C 113.15 296.56 114.671 298 114.781 298 C 114.891 298 113.55 296.56 111.8 294.8 C 110.05 293.04 108.529 291.6 108.419 291.6 C 108.309 291.6 109.65 293.04 111.4 294.8 M 120.2 303.6 C 122.171 305.58 123.873 307.2 123.983 307.2 C 124.093 307.2 122.571 305.58 120.6 303.6 C 118.629 301.62 116.927 300 116.817 300 C 116.707 300 118.229 301.62 120.2 303.6 M 278.992 304.1 L 275 308.2 L 279.1 304.208 C 281.355 302.012 283.2 300.167 283.2 300.108 C 283.2 299.818 282.701 300.292 278.992 304.1 M 271.478 311.013 C 270.86 311.556 270.514 312 270.708 312 C 270.902 312 271.483 311.55 272 311 C 273.195 309.728 272.931 309.734 271.478 311.013 M 129.2 311.725 C 129.2 311.794 129.785 312.379 130.5 313.025 L 131.8 314.2 L 130.625 312.9 C 129.53 311.688 129.2 311.416 129.2 311.725 M 258.678 321.813 C 258.06 322.356 257.714 322.8 257.908 322.8 C 258.102 322.8 258.683 322.35 259.2 321.8 C 260.395 320.528 260.131 320.534 258.678 321.813 M 241.8 334.65 C 241.081 335.262 240.934 335.505 241.433 335.257 C 242.166 334.893 243.541 333.576 243.149 333.614 C 243.067 333.622 242.46 334.088 241.8 334.65 M 238.3 337.014 C 237.255 337.78 236.4 338.496 236.4 338.603 C 236.4 338.711 237.3 338.152 238.4 337.362 C 240.109 336.134 240.723 335.568 240.3 335.61 C 240.245 335.615 239.345 336.247 238.3 337.014 M 164.8 339.297 C 164.8 339.464 166.377 340.559 170.1 342.977 C 170.705 343.37 171.2 343.607 171.2 343.503 C 171.2 343.336 169.623 342.241 165.9 339.823 C 165.295 339.43 164.8 339.193 164.8 339.297 M 212.912 353.099 C 211.544 353.901 210.487 354.62 210.563 354.696 C 210.727 354.861 215.6 352.041 215.6 351.781 C 215.6 351.519 215.627 351.506 212.912 353.099 M 208 356.036 C 207.336 356.579 207.269 356.715 207.8 356.44 C 209.105 355.766 209.828 355.212 209.4 355.215 C 209.18 355.217 208.55 355.586 208 356.036" stroke-linecap="round"/>
</g>
</g>
</g>
</svg>