<svg xmlns="http://www.w3.org/2000/svg" version="1.1" xmlns:xlink="http://www.w3.org/1999/xlink" xmlns:svgjs="http://svgjs.dev/svgjs" width="128" height="128" viewBox="0 0 128 128"><g transform="matrix(0.8046875,0,0,0.8046875,12.612792253521128,12.612792253521128)"><svg viewBox="0 0 142 142" data-background-color="#efefef" preserveAspectRatio="xMidYMid meet" height="128" width="128" xmlns="http://www.w3.org/2000/svg" xmlns:xlink="http://www.w3.org/1999/xlink"><g id="tight-bounds" transform="matrix(1,0,0,1,-0.15550000000000352,-0.15550000000000352)"><svg viewBox="0 0 142.31066447748242 142.31066447748242" height="142.31066447748242" width="142.31066447748242"><g><svg></svg></g><g><svg viewBox="0 0 142.31066447748242 142.31066447748242" height="142.31066447748242" width="142.31066447748242"><g><path d="M0 71.155c0-39.298 31.857-71.155 71.155-71.155 39.298 0 71.155 31.857 71.156 71.155 0 39.298-31.857 71.155-71.156 71.156-39.298 0-71.155-31.857-71.155-71.156zM71.155 134.886c35.197 0 63.731-28.533 63.731-63.731 0-35.197-28.533-63.731-63.731-63.73-35.197 0-63.731 28.533-63.73 63.73 0 35.197 28.533 63.731 63.73 63.731z" data-fill-palette-color="tertiary" fill="#d94e28" stroke="transparent"></path><ellipse rx="68.30911894919156" ry="68.30911894919156" cx="71.15533223874121" cy="71.15533223874121" fill="#d94e28" stroke="transparent" stroke-width="0" fill-opacity="1" data-fill-palette-color="tertiary"></ellipse></g><g transform="matrix(1,0,0,1,29.989108276746492,29.989108276746492)"><svg viewBox="0 0 82.33244792398943 82.33244792398943" height="82.33244792398943" width="82.33244792398943"><g><svg viewBox="0 0 82.33244792398943 82.33244792398943" height="82.33244792398943" width="82.33244792398943"><g><svg viewBox="0 0 82.33244792398943 82.33244792398943" height="82.33244792398943" width="82.33244792398943"><g id="textblocktransform"><svg viewBox="0 0 82.33244792398943 82.33244792398943" height="82.33244792398943" width="82.33244792398943" id="textblock"><g><svg viewBox="0 0 82.33244792398943 82.33244792398943" height="82.33244792398943" width="82.33244792398943"><g transform="matrix(1,0,0,1,0,0)"><svg width="82.33244792398943" viewBox="0 -50 43.75 43.75" height="82.33244792398943" data-palette-color="#efefef"><path d="M12.5-6.25L0-6.25 0-50 12.5-50 12.5-43.75 18.75-43.75 18.75-37.5 25-37.5 25-43.75 31.25-43.75 31.25-50 43.75-50 43.75-6.25 31.25-6.25 31.25-31.25 25-31.25 25-18.75 18.75-18.75 18.75-31.25 12.5-31.25 12.5-6.25Z" opacity="1" transform="matrix(1,0,0,1,0,0)" fill="#efefef" class="wordmark-text-0" data-fill-palette-color="quaternary" id="text-0"></path></svg></g></svg></g></svg></g></svg></g><g></g></svg></g></svg></g></svg></g><defs></defs></svg><rect width="142.31066447748242" height="142.31066447748242" fill="none" stroke="none" visibility="hidden"></rect></g></svg></g></svg>