<svg xmlns="http://www.w3.org/2000/svg" version="1.1" xmlns:xlink="http://www.w3.org/1999/xlink" xmlns:svgjs="http://svgjs.dev/svgjs" width="2000" height="1999" viewBox="0 0 2000 1999"><g transform="matrix(1,0,0,1,-0.431486880466764,-0.4312711370263287)"><svg viewBox="0 0 343 343" data-background-color="#efefef" preserveAspectRatio="xMidYMid meet" height="1999" width="2000" xmlns="http://www.w3.org/2000/svg" xmlns:xlink="http://www.w3.org/1999/xlink"><g id="tight-bounds" transform="matrix(1,0,0,1,0.0740000000000407,0.07400000000001228)"><svg viewBox="0 0 342.85155851775386 342.85155851775386" height="342.85155851775386" width="342.85155851775386"><g><svg></svg></g><g><svg viewBox="0 0 342.85155851775386 342.85155851775386" height="342.85155851775386" width="342.85155851775386"><g><path d="M0 171.426c0-94.676 76.75-171.426 171.426-171.426 94.676 0 171.426 76.75 171.426 171.426 0 94.676-76.75 171.426-171.426 171.426-94.676 0-171.426-76.75-171.426-171.426zM171.426 333.881c89.721 0 162.455-72.734 162.455-162.455 0-89.721-72.734-162.455-162.455-162.455-89.721 0-162.455 72.734-162.455 162.455 0 89.721 72.734 162.455 162.455 162.455z" data-fill-palette-color="tertiary" fill="#d94e28" stroke="transparent"></path><ellipse rx="164.56874808852186" ry="164.56874808852186" cx="171.42577925887693" cy="171.42577925887693" fill="#d94e28" stroke="transparent" stroke-width="0" fill-opacity="1" data-fill-palette-color="tertiary"></ellipse></g><g transform="matrix(1,0,0,1,64.84655864529837,121.68880963920694)"><svg viewBox="0 0 213.1584412271571 99.47393923933998" height="99.47393923933998" width="213.1584412271571"><g><svg viewBox="0 0 213.1584412271571 99.47393923933998" height="99.47393923933998" width="213.1584412271571"><g><svg viewBox="0 0 213.1584412271571 99.47393923933998" height="99.47393923933998" width="213.1584412271571"><g><svg viewBox="0 0 213.1584412271571 99.47393923933998" height="99.47393923933998" width="213.1584412271571"><g id="textblocktransform"><svg viewBox="0 0 213.1584412271571 99.47393923933998" height="99.47393923933998" width="213.1584412271571" id="textblock"><g><svg viewBox="0 0 213.1584412271571 99.47393923933998" height="99.47393923933998" width="213.1584412271571"><g transform="matrix(1,0,0,1,0,0)"><svg width="213.1584412271571" viewBox="0 -50 93.75 43.75" height="99.47393923933998" data-palette-color="#efefef"><path d="M12.5-6.25L0-6.25 0-50 12.5-50 12.5-43.75 18.75-43.75 18.75-37.5 25-37.5 25-43.75 31.25-43.75 31.25-50 43.75-50 43.75-6.25 31.25-6.25 31.25-31.25 25-31.25 25-18.75 18.75-18.75 18.75-31.25 12.5-31.25 12.5-6.25ZM87.5-6.25L56.25-6.25 56.25-12.5 50-12.5 50-18.75 62.5-18.75 62.5-12.5 81.25-12.5 81.25-50 93.75-50 93.75-12.5 87.5-12.5 87.5-6.25Z" opacity="1" transform="matrix(1,0,0,1,0,0)" fill="#efefef" class="wordmark-text-0" data-fill-palette-color="quaternary" id="text-0"></path></svg></g></svg></g></svg></g></svg></g><g></g></svg></g></svg></g></svg></g></svg></g><defs></defs></svg><rect width="342.85155851775386" height="342.85155851775386" fill="none" stroke="none" visibility="hidden"></rect></g></svg></g></svg>